#!OML:ASF H:\Terrain\Patient Classification 1\Walking\steve\steve.ASF
:FULLY-SPECIFIED
:DEGREES
226
root 8.91146 15.3657 5.74386 11.2888 4.03847 4.02052
lowerback 2.69115 -1.96658 -0.0792764
upperback -2.96952 -2.49619 3.3593
thorax -4.42367 -1.18046 3.68389
lowerneck -12.3556 0.0112704 0.0809058
upperneck 9.76328 0.345832 -2.79541
head 4.96019 -0.0167891 -0.856646
rclavicle -1.05356e-014 -1.27222e-014
rhumerus -55.1742 -10.7894 -65.2573
rradius 25.5612
rwrist 12.9837
rhand -14.6127 -35.277
rfingers 7.12502
rthumb 11.5383 -64.9394
lclavicle -1.05356e-014 -1.27222e-014
lhumerus -17.0144 -15.3561 90.2032
lradius 42.8209
lwrist 13.9179
lhand -26.4936 -22.7558
lfingers 7.12502
lthumb 0.0690398 7.22389
rfemur -53.842 -0.975465 20.219
rtibia 54.3246
rfoot -12.0389 5.52983
rtoes 5.60523
lfemur 16.2941 -3.96888 -25.4234
ltibia 26.2974
lfoot 17.63 5.50621
ltoes -1.27097
227
root 8.90494 15.4178 5.91792 11.1681 3.76358 4.00058
lowerback 3.05492 -1.83539 0.144022
upperback -2.89732 -2.30879 3.2445
thorax -4.57997 -1.09473 3.44042
lowerneck -12.243 -0.0353045 0.216889
upperneck 9.52439 0.259096 -2.84737
head 4.86615 -0.0545674 -0.900556
rclavicle -1.49089e-014 4.92986e-014
rhumerus -54.5696 -11.0395 -65.7269
rradius 26.1127
rwrist 12.9853
rhand -12.8409 -36.2075
rfingers 7.12502
rthumb 13.2465 -65.7666
lclavicle -1.49089e-014 4.92986e-014
lhumerus -17.3655 -15.1408 90.3691
lradius 40.8787
lwrist 12.8101
lhand -26.2159 -23.0529
lfingers 7.12502
lthumb 0.337224 6.92661
rfemur -53.0357 -0.934696 20.3882
rtibia 54.5049
rfoot -12.5318 5.95225
rtoes 6.1663
lfemur 14.8882 -3.42285 -25.2532
ltibia 29.0972
lfoot 19.3318 7.35626
ltoes -0.193636
228
root 8.89889 15.477 6.09569 11.2389 3.74057 4.12206
lowerback 3.23469 -1.82398 0.238727
upperback -2.94847 -2.28808 3.13592
thorax -4.74459 -1.08726 3.28206
lowerneck -12.1721 -0.0854142 0.370502
upperneck 9.43135 0.167039 -2.88573
head 4.82404 -0.0952031 -0.943934
rclavicle -5.1684e-015 -2.22639e-014
rhumerus -54.0452 -11.057 -66.3906
rradius 26.7296
rwrist 12.2058
rhand -13.1705 -36.2251
rfingers 7.12502
rthumb 12.9289 -65.8046
lclavicle -5.1684e-015 -2.22639e-014
lhumerus -17.7055 -14.7356 90.5143
lradius 38.7446
lwrist 11.5475
lhand -25.9489 -23.0443
lfingers 7.12502
lthumb 0.595104 6.9346
rfemur -52.2324 -1.18213 20.4316
rtibia 54.5619
rfoot -13.0807 6.40117
rtoes 6.02744
lfemur 13.344 -3.02379 -25.1476
ltibia 31.6503
lfoot 20.3565 9.32308
ltoes -0.940366
229
root 8.88716 15.5296 6.27654 11.4641 3.70926 4.53101
lowerback 3.15139 -1.79682 -0.131777
upperback -3.05338 -2.27459 3.0616
thorax -4.79605 -1.0681 3.41189
lowerneck -12.2359 -0.153741 0.243714
upperneck 9.66616 0.0898512 -2.77747
head 4.90602 -0.133054 -0.896669
rclavicle 1.31198e-014 -4.77083e-015
rhumerus -53.4835 -10.5209 -67.231
rradius 27.4391
rwrist 10.8112
rhand -15.4764 -35.6672
rfingers 7.12502
rthumb 10.7052 -65.3744
lclavicle 1.31198e-014 -4.77083e-015
lhumerus -18.2153 -14.7536 90.9439
lradius 36.5702
lwrist 10.5829
lhand -26.3871 -23.1697
lfingers 7.12502
lthumb 0.171865 6.80997
rfemur -51.5755 -1.39306 20.1192
rtibia 54.5048
rfoot -13.6598 6.74223
rtoes 4.68046
lfemur 11.6545 -2.85307 -25.4454
ltibia 34.1066
lfoot 20.0139 12.2324
ltoes 1.28303
